<svg width="140" height="31" viewBox="0 0 140 31" fill="none" xmlns="http://www.w3.org/2000/svg">
<path fill-rule="evenodd" clip-rule="evenodd" d="M0.0246983 14.4827C0.451386 6.4117 7.06534 0 15.1618 0C23.5339 0 30.3208 6.85564 30.3208 15.3125C30.3208 23.6025 23.7991 30.3538 15.6555 30.617C15.4916 30.6223 15.327 30.625 15.1618 30.625C12.4663 30.625 9.9352 29.9144 7.74197 28.6684L-5.40018e-05 30.6236L1.29052 21.498C0.462629 19.6065 0.00281963 17.5137 0.00281963 15.3125C0.00281963 15.0341 0.0101733 14.7574 0.0246983 14.4827Z" fill="#69C9C5"/>
<path d="M120.167 30V3.81818H125.613V13.6619H125.779C126.018 13.1335 126.363 12.5966 126.815 12.0511C127.275 11.4972 127.872 11.0369 128.605 10.6705C129.346 10.2955 130.267 10.108 131.366 10.108C132.798 10.108 134.119 10.4829 135.329 11.2329C136.539 11.9744 137.507 13.0952 138.231 14.5952C138.955 16.0866 139.318 17.9574 139.318 20.2074C139.318 22.3977 138.964 24.2472 138.257 25.7557C137.558 27.2557 136.603 28.3935 135.393 29.169C134.191 29.9361 132.845 30.3196 131.353 30.3196C130.296 30.3196 129.397 30.1449 128.656 29.7955C127.923 29.446 127.322 29.0071 126.853 28.4787C126.384 27.9418 126.026 27.4006 125.779 26.8551H125.536V30H120.167ZM125.498 20.1818C125.498 21.3494 125.66 22.3679 125.984 23.2372C126.308 24.1065 126.776 24.7841 127.39 25.2699C128.004 25.7472 128.75 25.9858 129.627 25.9858C130.514 25.9858 131.264 25.7429 131.877 25.2571C132.491 24.7628 132.955 24.081 133.271 23.2116C133.595 22.3338 133.757 21.3239 133.757 20.1818C133.757 19.0483 133.599 18.0511 133.284 17.1903C132.968 16.3295 132.504 15.6562 131.89 15.1704C131.276 14.6847 130.522 14.4418 129.627 14.4418C128.741 14.4418 127.991 14.6761 127.377 15.1449C126.772 15.6136 126.308 16.2784 125.984 17.1392C125.66 18 125.498 19.0142 125.498 20.1818Z" fill="#69C9C5"/>
<path d="M108.381 30.3708C107.129 30.3708 106.012 30.1534 105.032 29.7188C104.052 29.2756 103.276 28.6236 102.705 27.7628C102.143 26.8935 101.862 25.8111 101.862 24.5156C101.862 23.4247 102.062 22.5085 102.462 21.7671C102.863 21.0256 103.408 20.429 104.099 19.9773C104.789 19.5256 105.573 19.1847 106.451 18.9546C107.337 18.7244 108.266 18.5625 109.238 18.4688C110.38 18.3494 111.3 18.2387 111.999 18.1364C112.698 18.0256 113.205 17.8637 113.521 17.6506C113.836 17.4375 113.994 17.1222 113.994 16.7046V16.6279C113.994 15.8182 113.738 15.1918 113.227 14.7486C112.724 14.3054 112.008 14.0838 111.079 14.0838C110.099 14.0838 109.319 14.3012 108.739 14.7358C108.16 15.1619 107.776 15.6989 107.589 16.3466L102.552 15.9375C102.808 14.7443 103.31 13.7131 104.06 12.8438C104.81 11.9659 105.778 11.2926 106.962 10.8239C108.156 10.3466 109.536 10.108 111.104 10.108C112.195 10.108 113.239 10.2358 114.237 10.4915C115.242 10.7472 116.133 11.1435 116.908 11.6804C117.693 12.2173 118.31 12.9077 118.762 13.7514C119.214 14.5867 119.44 15.5881 119.44 16.7557V30H114.275V27.277H114.122C113.806 27.8906 113.384 28.4318 112.856 28.9006C112.327 29.3608 111.693 29.723 110.951 29.9872C110.21 30.2429 109.353 30.3708 108.381 30.3708ZM109.941 26.6122C110.742 26.6122 111.45 26.4546 112.063 26.1392C112.677 25.8154 113.158 25.3807 113.508 24.8352C113.857 24.2898 114.032 23.6719 114.032 22.9815V20.8977C113.862 21.0085 113.627 21.1108 113.329 21.2046C113.039 21.2898 112.711 21.3708 112.345 21.4475C111.978 21.5156 111.612 21.5796 111.245 21.6392C110.879 21.6904 110.546 21.7372 110.248 21.7798C109.609 21.8736 109.05 22.0227 108.573 22.2273C108.096 22.4318 107.725 22.7088 107.461 23.0583C107.197 23.3992 107.065 23.8253 107.065 24.3367C107.065 25.0781 107.333 25.6449 107.87 26.0369C108.416 26.4205 109.106 26.6122 109.941 26.6122Z" fill="#69C9C5"/>
<path d="M102.019 3.81818V30H96.5734V3.81818H102.019Z" fill="#69C9C5"/>
<path d="M96.2966 15.9631L91.3108 16.2699C91.2256 15.8438 91.0424 15.4602 90.7611 15.1193C90.4799 14.7699 90.1091 14.4929 89.6489 14.2884C89.1972 14.0753 88.656 13.9688 88.0253 13.9688C87.1816 13.9688 86.4699 14.1477 85.8904 14.5057C85.3108 14.8551 85.021 15.3239 85.021 15.9119C85.021 16.3807 85.2085 16.777 85.5835 17.1009C85.9585 17.4247 86.602 17.6847 87.5139 17.8807L91.0679 18.5966C92.977 18.9887 94.4003 19.6193 95.3378 20.4887C96.2753 21.358 96.7441 22.5 96.7441 23.9148C96.7441 25.2017 96.3648 26.331 95.6063 27.3026C94.8563 28.2742 93.825 29.0327 92.5125 29.5781C91.2085 30.1151 89.7043 30.3835 87.9997 30.3835C85.4003 30.3835 83.3293 29.8423 81.7867 28.76C80.2526 27.6691 79.3534 26.1861 79.0892 24.3111L84.4458 24.0298C84.6077 24.8225 84.9997 25.4276 85.6219 25.8452C86.2441 26.2543 87.0409 26.4588 88.0125 26.4588C88.9671 26.4588 89.7341 26.2756 90.3137 25.9091C90.9017 25.5341 91.2 25.0526 91.2085 24.4645C91.2 23.9702 90.9912 23.5654 90.5821 23.25C90.173 22.9262 89.5424 22.679 88.6901 22.5085L85.2895 21.831C83.3719 21.4475 81.9443 20.7827 81.0068 19.8367C80.0779 18.8906 79.6134 17.6847 79.6134 16.2188C79.6134 14.9574 79.9543 13.8708 80.6361 12.9588C81.3264 12.0469 82.2938 11.3438 83.5381 10.8494C84.7909 10.3551 86.2568 10.108 87.9358 10.108C90.4159 10.108 92.3676 10.6321 93.7909 11.6804C95.2228 12.7287 96.058 14.1563 96.2966 15.9631Z" fill="white"/>
<path d="M70.9918 30.3835C68.972 30.3835 67.2333 29.9744 65.7759 29.1563C64.3271 28.3296 63.2106 27.1619 62.4265 25.6534C61.6424 24.1364 61.2504 22.3423 61.2504 20.2713C61.2504 18.2514 61.6424 16.4787 62.4265 14.9531C63.2106 13.4276 64.3143 12.2387 65.7376 11.3864C67.1694 10.5341 68.8484 10.108 70.7745 10.108C72.07 10.108 73.2759 10.3168 74.3924 10.7344C75.5174 11.1435 76.4975 11.7614 77.3328 12.5881C78.1765 13.4148 78.8328 14.4546 79.3015 15.7074C79.7703 16.9517 80.0046 18.4091 80.0046 20.0796V21.5753H63.4237V18.2003H74.8782C74.8782 17.4162 74.7078 16.7216 74.3668 16.1165C74.0259 15.5114 73.5529 15.0384 72.9478 14.6975C72.3512 14.348 71.6566 14.1733 70.864 14.1733C70.0373 14.1733 69.3043 14.3651 68.6651 14.7486C68.0345 15.1236 67.5401 15.6307 67.1822 16.2699C66.8242 16.9006 66.641 17.6037 66.6325 18.3793V21.5881C66.6325 22.5597 66.8114 23.3992 67.1694 24.1065C67.5359 24.8139 68.0515 25.3594 68.7163 25.7429C69.3811 26.1264 70.1694 26.3182 71.0813 26.3182C71.6864 26.3182 72.2404 26.233 72.7433 26.0625C73.2461 25.8921 73.6765 25.6364 74.0345 25.2955C74.3924 24.9546 74.6651 24.5369 74.8526 24.0426L79.8896 24.375C79.6339 25.5852 79.1097 26.6421 78.3171 27.5455C77.533 28.4404 76.5188 29.1392 75.2745 29.6421C74.0387 30.1364 72.6112 30.3835 70.9918 30.3835Z" fill="white"/>
<path d="M55.8343 30V10.3636H61.2803V30H55.8343ZM58.5701 7.83239C57.7604 7.83239 57.0658 7.56393 56.4863 7.02699C55.9153 6.48154 55.6298 5.82955 55.6298 5.07103C55.6298 4.32103 55.9153 3.67756 56.4863 3.14063C57.0658 2.59518 57.7604 2.32245 58.5701 2.32245C59.3798 2.32245 60.0701 2.59518 60.6411 3.14063C61.2207 3.67756 61.5104 4.32103 61.5104 5.07103C61.5104 5.82955 61.2207 6.48154 60.6411 7.02699C60.0701 7.56393 59.3798 7.83239 58.5701 7.83239Z" fill="white"/>
<path d="M44.7039 30V10.3636H49.9837V13.7898H50.1882C50.5462 12.571 51.147 11.6506 51.9908 11.0284C52.8345 10.3977 53.8061 10.0824 54.9056 10.0824C55.1783 10.0824 55.4723 10.0994 55.7877 10.1335C56.103 10.1676 56.38 10.2145 56.6186 10.2742V15.1065C56.363 15.0298 56.0093 14.9617 55.5576 14.902C55.1058 14.8423 54.6925 14.8125 54.3175 14.8125C53.5164 14.8125 52.8005 14.9872 52.1698 15.3367C51.5476 15.6776 51.0533 16.1548 50.6868 16.7685C50.3289 17.3821 50.1499 18.0895 50.1499 18.8906V30H44.7039Z" fill="white"/>
<path d="M35.7371 30.3835C33.7172 30.3835 31.9786 29.9744 30.5212 29.1563C29.0723 28.3296 27.9558 27.1619 27.1717 25.6534C26.3877 24.1364 25.9956 22.3423 25.9956 20.2713C25.9956 18.2514 26.3877 16.4787 27.1717 14.9531C27.9558 13.4276 29.0595 12.2387 30.4828 11.3864C31.9146 10.5341 33.5936 10.108 35.5198 10.108C36.8152 10.108 38.0212 10.3168 39.1377 10.7344C40.2627 11.1435 41.2428 11.7614 42.078 12.5881C42.9217 13.4148 43.578 14.4546 44.0467 15.7074C44.5155 16.9517 44.7499 18.4091 44.7499 20.0796V21.5753H28.1689V18.2003H39.6234C39.6234 17.4162 39.453 16.7216 39.1121 16.1165C38.7712 15.5114 38.2982 15.0384 37.693 14.6975C37.0965 14.348 36.4019 14.1733 35.6092 14.1733C34.7825 14.1733 34.0496 14.3651 33.4104 14.7486C32.7797 15.1236 32.2854 15.6307 31.9274 16.2699C31.5695 16.9006 31.3862 17.6037 31.3777 18.3793V21.5881C31.3777 22.5597 31.5567 23.3992 31.9146 24.1065C32.2811 24.8139 32.7967 25.3594 33.4615 25.7429C34.1263 26.1264 34.9146 26.3182 35.8266 26.3182C36.4317 26.3182 36.9857 26.233 37.4885 26.0625C37.9913 25.8921 38.4217 25.6364 38.7797 25.2955C39.1377 24.9546 39.4104 24.5369 39.5979 24.0426L44.6348 24.375C44.3791 25.5852 43.855 26.6421 43.0624 27.5455C42.2783 28.4404 41.2641 29.1392 40.0198 29.6421C38.784 30.1364 37.3564 30.3835 35.7371 30.3835Z" fill="white"/>
<path d="M26.5115 15.9631L21.5257 16.2699C21.4404 15.8438 21.2572 15.4602 20.976 15.1193C20.6947 14.7699 20.324 14.4929 19.8637 14.2884C19.412 14.0753 18.8708 13.9688 18.2402 13.9688C17.3964 13.9688 16.6848 14.1477 16.1052 14.5057C15.5257 14.8551 15.2359 15.3239 15.2359 15.9119C15.2359 16.3807 15.4234 16.777 15.7984 17.1009C16.1734 17.4247 16.8169 17.6847 17.7288 17.8807L21.2828 18.5966C23.1919 18.9887 24.6152 19.6193 25.5527 20.4887C26.4902 21.358 26.9589 22.5 26.9589 23.9148C26.9589 25.2017 26.5796 26.331 25.8211 27.3026C25.0711 28.2742 24.0399 29.0327 22.7274 29.5781C21.4234 30.1151 19.9191 30.3835 18.2146 30.3835C15.6152 30.3835 13.5441 29.8423 12.0015 28.76C10.4674 27.6691 9.56828 26.1861 9.30408 24.3111L14.6606 24.0298C14.8225 24.8225 15.2146 25.4276 15.8367 25.8452C16.4589 26.2543 17.2558 26.4588 18.2274 26.4588C19.1819 26.4588 19.949 26.2756 20.5285 25.9091C21.1166 25.5341 21.4149 25.0526 21.4234 24.4645C21.4149 23.9702 21.2061 23.5654 20.797 23.25C20.3879 22.9262 19.7572 22.679 18.9049 22.5085L15.5044 21.831C13.5867 21.4475 12.1592 20.7827 11.2217 19.8367C10.2927 18.8906 9.82822 17.6847 9.82822 16.2188C9.82822 14.9574 10.1691 13.8708 10.851 12.9588C11.5413 12.0469 12.5086 11.3438 13.7529 10.8494C15.0058 10.3551 16.4717 10.108 18.1507 10.108C20.6308 10.108 22.5825 10.6321 24.0058 11.6804C25.4376 12.7287 26.2728 14.1563 26.5115 15.9631Z" fill="white"/>
</svg>
