<svg width="31" height="32" viewBox="0 0 31 32" fill="none" xmlns="http://www.w3.org/2000/svg">
<path fill-rule="evenodd" clip-rule="evenodd" d="M0.0246983 15.2882C0.451386 7.21724 7.06534 0.805542 15.1618 0.805542C23.5339 0.805542 30.3208 7.66118 30.3208 16.118C30.3208 24.408 23.7991 31.1594 15.6555 31.4226C15.4916 31.4279 15.327 31.4305 15.1618 31.4305C12.4663 31.4305 9.9352 30.7199 7.74197 29.474L-5.40018e-05 31.4291L1.29052 22.3036C0.462629 20.412 0.00281963 18.3193 0.00281963 16.118C0.00281963 15.8396 0.0101733 15.563 0.0246983 15.2882Z" fill="#69C9C5"/>
<path d="M18.1063 30.3308C16.5323 30.3308 15.1308 30.0586 13.9018 29.5141C12.6728 28.9697 11.7025 28.2293 10.991 27.2928C10.2794 26.3346 9.88056 25.2675 9.79431 24.0915H15.2602C15.3248 24.723 15.6159 25.2348 16.1334 25.6268C16.6509 26.0188 17.2869 26.2148 18.0416 26.2148C18.7316 26.2148 19.2598 26.0841 19.6264 25.8228C20.0145 25.5397 20.2085 25.1804 20.2085 24.7448C20.2085 24.2221 19.939 23.841 19.4 23.6015C18.8609 23.3401 17.9877 23.057 16.7802 22.7521C15.4865 22.4473 14.4085 22.1315 13.546 21.8048C12.6836 21.4564 11.9397 20.9228 11.3144 20.2041C10.6891 19.4637 10.3765 18.4728 10.3765 17.2315C10.3765 16.1861 10.6568 15.2388 11.2174 14.3895C11.7995 13.5184 12.6404 12.8324 13.7401 12.3315C14.8613 11.8306 16.1873 11.5801 17.7182 11.5801C19.9821 11.5801 21.7609 12.1464 23.0546 13.2788C24.3699 14.4113 25.1245 15.9139 25.3186 17.7868H20.2085C20.1223 17.1553 19.842 16.6544 19.3676 16.2841C18.9148 15.9139 18.3111 15.7288 17.5565 15.7288C16.9096 15.7288 16.4137 15.8595 16.0687 16.1208C15.7237 16.3604 15.5512 16.6979 15.5512 17.1335C15.5512 17.6561 15.8208 18.0481 16.3598 18.3095C16.9204 18.5708 17.7828 18.8321 18.9472 19.0935C20.284 19.4419 21.3728 19.7904 22.2137 20.1388C23.0546 20.4655 23.7877 21.0099 24.413 21.7721C25.0599 22.5126 25.3941 23.5144 25.4156 24.7775C25.4156 25.8446 25.1138 26.8028 24.51 27.6521C23.9279 28.4797 23.0762 29.133 21.955 29.6121C20.8554 30.0913 19.5725 30.3308 18.1063 30.3308Z" fill="white"/>
</svg>
